
nColumns=19
nRows=50
DataType=double
version=3
OpenSimVersion=4.4-2022-10-11-798caa840
endheader
time	ground_force_calcn_r_vx	ground_force_calcn_r_vy	ground_force_calcn_r_vz	ground_force_calcn_r_px	ground_force_calcn_r_py	ground_force_calcn_r_pz	ground_force_calcn_r_mx	ground_force_calcn_r_my	ground_force_calcn_r_mz	ground_force_calcn_l_vx	ground_force_calcn_l_vy	ground_force_calcn_l_vz	ground_force_calcn_l_px	ground_force_calcn_l_py	ground_force_calcn_l_pz	ground_force_calcn_l_mx	ground_force_calcn_l_my	ground_force_calcn_l_mz
3.43	5.62105e-05	-3.0022e-05	2.8172e-06	1.54349	0	-0.45657	-9.85268e-20	5.26231e-20	-4.93805e-21	-104.042	795.866	38.8477	1.96292	0	-0.573994	-0.00210441	0.0160976	0.000785756
3.435	0.000150291	-7.57157e-05	7.699080000000001e-06	1.55819	0	-0.455874	-1.663e-18	8.37808e-19	-8.51918e-20	-100.637	796.05	38.9802	1.96299	0	-0.5746830000000001	0.0229982	-0.181918	-0.008907979999999999
3.44	0.000143452	-6.854410000000001e-05	7.39613e-06	1.57385	0	-0.455136	-3.82998e-17	1.83004e-17	-1.97468e-18	-97.0883	793.888	39.1102	1.9632	0	-0.575326	0.0449996	-0.36796	-0.0181272
3.445	-0.000839375	0.000381994	-4.32656e-05	1.59038	0	-0.454363	-6.72886e-16	3.06226e-16	-3.4684e-17	-93.43600000000001	789.446	39.1674	1.96355	0	-0.575922	0.0614668	-0.519337	-0.0257663
3.45	-0.00104312	0.000454597	-5.32616e-05	1.60764	0	-0.453573	2.45418e-15	-1.06955e-15	1.2531e-16	-89.66	782.877	39.1596	1.96402	0	-0.576472	0.0711632	-0.62137	-0.031081
3.455	-0.000916333	0.000384269	-4.589e-05	1.62549	0	-0.452784	2.05971e-16	-8.6375e-17	1.0315e-17	-85.8313	774.304	39.0101	1.96462	0	-0.576975	0.073589	-0.663863	-0.033446
3.46	-0.000773669	0.000313633	-3.76024e-05	1.6438	0	-0.452014	-3.31096e-15	1.34221e-15	-1.60922e-16	-81.96599999999999	763.875	38.7072	1.96534	0	-0.5774319999999999	0.0690151	-0.64318	-0.0325913
3.465	-0.000666912	0.000262339	-3.12658e-05	1.66248	0	-0.451267	-5.60539e-15	2.20495e-15	-2.62789e-16	-78.10120000000001	751.776	38.2241	1.96614	0	-0.577842	0.0584385	-0.56251	-0.0286008
3.47	-0.000611612	0.000234405	-2.74562e-05	1.68143	0	-0.450554	-7.322819999999999e-15	2.80653e-15	-3.28732e-16	-74.25530000000001	738.212	37.5948	1.96701	0	-0.5782119999999999	0.0437848	-0.435288	-0.0221679
3.475	-0.000600907	0.000225118	-2.56712e-05	1.70057	0	-0.449882	-9.379969999999999e-15	3.51402e-15	-4.00719e-16	-70.46210000000001	723.463	36.8669	1.96793	0	-0.578545	0.0257846	-0.264741	-0.0134909
3.48	-0.000638829	0.000234683	-2.57924e-05	1.71984	0	-0.449255	-1.25186e-14	4.5989e-15	-5.05433e-16	-66.72069999999999	707.89	36.112	1.9689	0	-0.578846	0.00480705	-0.0510016	-0.00260178
3.485	-0.000733103	0.00026476	-2.78156e-05	1.73919	0	-0.448674	-1.80612e-14	6.5228e-15	-6.85284e-16	-63.0691	691.752	35.4384	1.96991	0	-0.579113	-0.0159785	0.175255	0.00897831
3.49	-0.000908546	0.000323348	-3.21793e-05	1.75858	0	-0.448143	-2.8203e-14	1.00373e-14	-9.98906e-16	-59.5246	675.264	34.879	1.97095	0	-0.5793469999999999	-0.0330453	0.374875	0.0193632
3.495	-0.00120852	0.000424637	-3.97435e-05	1.778	0	-0.447658	-4.82248e-14	1.69447e-14	-1.58593e-15	-56.1372	658.678	34.514	1.972	0	-0.579553	-0.0453143	0.531689	0.0278599
3.5	-0.00171885	0.000597302	-5.22013e-05	1.79742	0	-0.44722	-8.95903e-14	3.11326e-14	-2.72084e-15	-52.9765	642.2190000000001	34.3265	1.97306	0	-0.579732	-0.0528302	0.640446	0.0342317
3.505	-0.00259167	0.0008917900000000001	-7.24244e-05	1.81686	0	-0.446823	-1.81047e-13	6.2298e-14	-5.05937e-15	-50.0751	626.054	34.3136	1.9741	0	-0.579887	-0.0566158	0.707829	0.0387956
3.51	-0.00411103	0.00140244	-0.000105222	1.83629	0	-0.446466	-3.93317e-13	1.34177e-13	-1.00669e-14	-47.4832	610.294	34.3942	1.97512	0	-0.58001	-0.0583153	0.749517	0.0422404
3.515	-0.00679061	0.00229889	-0.000158608	1.85574	0	-0.446146	-9.12784e-13	3.09013e-13	-2.13199e-14	-45.1697	595.077	34.4551	1.97613	0	-0.5800959999999999	-0.0580973	0.765389	0.0443161
3.52	-0.0115703	0.00389053	-0.00024599	1.87522	0	-0.445859	-2.23365e-12	7.51067e-13	-4.74883e-14	-43.091	580.579	34.4104	1.9771	0	-0.58014	-0.0549138	0.7398709999999999	0.0438515
3.525	-0.0200961	0.00671573	-0.00038941	1.89474	0	-0.4456	-5.71873e-12	1.91109e-12	-1.10814e-13	-41.193	566.88	34.1281	1.97803	0	-0.580147	-0.0496143	0.682771	0.0411052
3.53	-0.035257	0.0117171	-0.000625069	1.91432	0	-0.445364	-1.51106e-11	5.02176e-12	-2.67895e-13	-39.4005	554.026	33.569	1.97892	0	-0.580121	-0.0432662	0.608383	0.0368625
3.535	-0.0618083	0.0204361	-0.00101128	1.93398	0	-0.445146	-4.08777e-11	1.35157e-11	-6.68826e-13	-37.6936	542.148	32.7124	1.97977	0	-0.58007	-0.0366647	0.52735	0.0318195
3.54	-0.107362	0.0353314	-0.00164203	1.95375	0	-0.444941	-1.11873e-10	3.68159e-11	-1.71102e-12	-36.0216	531.3049999999999	31.588	1.98057	0	-0.580003	-0.0302445	0.446095	0.026522
3.545	-0.183101	0.059992	-0.00266661	1.97364	0	-0.444743	-3.0717e-10	1.00643e-10	-4.47352e-12	-34.3541	521.5119999999999	30.2731	1.98133	0	-0.579929	-0.0246883	0.37478	0.0217555
3.55	-0.304199	0.0992643	-0.00430545	1.99367	0	-0.444546	-8.35515e-10	2.7264e-10	-1.18254e-11	-32.6875	512.798	28.7807	1.98204	0	-0.579851	-0.0213413	0.3348	0.0187906
3.555	-0.488468	0.158792	-0.00687735	2.01386	0	-0.444346	-2.22907e-09	7.24629e-10	-3.1384e-11	-30.9782	505.264	27.1821	1.98273	0	-0.579763	-0.0200432	0.326911	0.0175871
3.56	-0.755297	0.244681	-0.0108523	2.03422	0	-0.444136	-5.77036e-09	1.86933e-09	-8.29102e-11	-29.2019	498.925	25.5019	1.98342	0	-0.579665	-0.0200258	0.342149	0.0174885
3.565	-1.117	0.360644	-0.0168082	2.05476	0	-0.443909	-1.43945e-08	4.64752e-09	-2.16602e-10	-27.3742	493.826	23.8009	1.98413	0	-0.579558	-0.0207408	0.37416	0.0180334
3.57	-1.57088	0.505671	-0.0252028	2.0755	0	-0.443658	-3.42721e-08	1.10323e-08	-5.49852e-10	-25.5037	489.972	22.1552	1.9849	0	-0.579447	-0.021533	0.413688	0.0187059
3.575	-2.09326	0.672254	-0.0361477	2.09644	0	-0.443379	-7.72535e-08	2.481e-08	-1.33406e-09	-23.6532	487.346	20.6937	1.98574	0	-0.579335	-0.0216264	0.445587	0.0189205
3.58	-2.63034	0.843271	-0.049235	2.11758	0	-0.443067	-1.63721e-07	5.24881e-08	-3.06456e-09	-21.8819	485.865	19.4786	1.98667	0	-0.579225	-0.020769	0.461153	0.0184879
3.585	-3.09759	0.991854	-0.0632257	2.13892	0	-0.442713	-3.24426e-07	1.03882e-07	-6.62194e-09	-20.219	485.453	18.5954	1.98768	0	-0.579118	-0.0187931	0.451217	0.017284
3.59	-3.40924	1.09093	-0.0760236	2.16046	0	-0.442307	-5.96479e-07	1.90869e-07	-1.3301e-08	-18.7138	486.042	18.0444	1.98879	0	-0.579013	-0.0158815	0.412481	0.0153134
3.595	-3.48536	1.11511	-0.0847678	2.18221	0	-0.441837	-1.01186e-06	3.23734e-07	-2.46095e-08	-17.3518	487.536	17.7657	1.98998	0	-0.578908	-0.0123415	0.346762	0.0126359
3.6	-3.27156	1.0471	-0.0864019	2.20416	0	-0.44129	-1.56607e-06	5.01238e-07	-4.13598e-08	-16.1137	489.812	17.7133	1.99124	0	-0.578799	-0.00859394	0.261233	0.00944706
3.605	-2.76913	0.887174	-0.0788957	2.22631	0	-0.440642	-2.18449e-06	6.99867e-07	-6.22386e-08	-14.9744	492.775	17.8066	1.99257	0	-0.578684	-0.00510749	0.168077	0.00607352
3.61	-2.05697	0.660144	-0.0626835	2.24865	0	-0.439859	-2.70044e-06	8.666559999999999e-07	-8.22927e-08	-13.8977	496.447	18.0197	1.99397	0	-0.57856	-0.0019834	0.07085	0.00257167
3.615	-1.29039	0.415183	-0.0416727	2.27111	0	-0.438871	-2.91037e-06	9.36412e-07	-9.39893e-08	-12.8275	500.817	18.3096	1.99544	0	-0.578424	0.0007036670000000001	-0.0274728	-0.00100439
3.62	-0.643316	0.20772	-0.0218278	2.29346	0	-0.437496	-2.68633e-06	8.67387e-07	-9.11477e-08	-11.7164	505.804	18.6831	1.997	0	-0.578278	0.00292654	-0.126341	-0.00466669
3.625	-0.224476	0.0728261	-0.007917810000000001	2.3147	0	-0.435032	-2.07254e-06	6.72387e-07	-7.31034e-08	-10.5578	511.374	19.1091	1.99866	0	-0.578124	0.00454275	-0.22003	-0.008222119999999999
3.63	-0.0273152	0.00892485	-0.000957224	2.32021	0	-0.421371	-9.99939e-07	3.26715e-07	-3.50415e-08	-9.28567	517.53	19.5587	2.0004	0	-0.577962	0.00536444	-0.298983	-0.0112993
3.635	-0.008180720000000001	0.0026945	-0.000277023	2.31948	0	-0.411398	-3.36729e-07	1.10909e-07	-1.14026e-08	-7.85676	524.293	19.9999	2.00222	0	-0.57779	0.00537959	-0.358988	-0.0136941
3.64	-0.00378718	0.00125749	-0.000127121	2.33659	0	-0.413206	-1.88342e-07	6.25368e-08	-6.32192e-09	-6.22578	531.692	20.3942	2.00412	0	-0.577604	0.00463107	-0.3955	-0.0151703
3.645	-0.00141731	0.000475506	-4.53084e-05	2.34448	0	-0.399349	-9.16216e-08	3.07389e-08	-2.92895e-09	-4.30404	539.693	20.721	2.00611	0	-0.577396	0.00321763	-0.403466	-0.0154907
3.65	-0.000530139	0.000180297	-1.4506e-05	2.32029	0	-0.359851	-2.18629e-08	7.43543e-09	-5.98225e-10	-2.08443	548.204	20.9862	2.00819	0	-0.577164	0.00145935	-0.383808	-0.0146928
3.655	-0.000611418	0.000210281	-1.31229e-05	2.28706	0	-0.381469	-3.76157e-08	1.29369e-08	-8.07346e-10	0.442201	557.16	21.2061	2.01038	0	-0.576905	-0.000270962	-0.341404	-0.0129942
3.66	-0.00151194	0.000525913	-2.40808e-05	2.26414	0	-0.401938	-4.66613e-08	1.62307e-08	-7.43179e-10	3.28178	566.4109999999999	21.3957	2.01266	0	-0.576618	-0.00162286	-0.280094	-0.0105803
3.665	-0.00468114	0.00164978	-5.38831e-05	2.26619	0	-0.409593	-5.57885e-08	1.96616e-08	-6.42164e-10	6.42743	575.895	21.5753	2.01506	0	-0.576303	-0.00226376	-0.202832	-0.00759888
3.67	-0.0127944	0.00457848	-8.82533e-05	2.27729	0	-0.412154	-5.18821e-08	1.8566e-08	-3.57873e-10	9.832979999999999	585.5410000000001	21.774	2.01758	0	-0.57596	-0.00194411	-0.115769	-0.00430502
3.675	-0.0282605	0.0102914	-4.78578e-05	2.2915	0	-0.413104	-3.57704e-08	1.30262e-08	-6.05755e-11	13.4688	595.234	22.0406	2.02021	0	-0.575591	-0.000557605	-0.0246425	-0.000912473
